<svg width="20" height="20" viewBox="0 0 20 20" fill="none" xmlns="http://www.w3.org/2000/svg">
<g id="place_black_24dp (4) 1" clip-path="url(#clip0_1_798)">
<path id="Vector" d="M10.2396 10.0124C9.36875 10.0124 8.65625 9.29987 8.65625 8.42904C8.65625 7.5582 9.36875 6.8457 10.2396 6.8457C11.1104 6.8457 11.8229 7.5582 11.8229 8.42904C11.8229 9.29987 11.1104 10.0124 10.2396 10.0124ZM14.9896 8.58737C14.9896 5.71362 12.8917 3.67904 10.2396 3.67904C7.5875 3.67904 5.48958 5.71362 5.48958 8.58737C5.48958 10.4399 7.03333 12.894 10.2396 15.8232C13.4458 12.894 14.9896 10.4399 14.9896 8.58737ZM10.2396 2.0957C13.5646 2.0957 16.5729 4.64487 16.5729 8.58737C16.5729 11.2157 14.4592 14.327 10.2396 17.929C6.02 14.327 3.90625 11.2157 3.90625 8.58737C3.90625 4.64487 6.91458 2.0957 10.2396 2.0957Z" fill="#222222"/>
</g>
<defs>
<clipPath id="clip0_1_798">
<rect width="19" height="19" fill="white" transform="translate(0.738281 0.511719)"/>
</clipPath>
</defs>
</svg>
