<svg width="18" height="13" viewBox="0 0 18 13" fill="none" xmlns="http://www.w3.org/2000/svg">
<g id="Group-2" clip-path="url(#clip0_1_265)">
<g id="Group">
<g id="Group_2">
<path id="Vector" fill-rule="evenodd" clip-rule="evenodd" d="M12.7688 7.81289C13.7669 7.81289 14.5986 7.09061 14.84 6.12012H10.6976C10.9391 7.09061 11.7708 7.81289 12.7688 7.81289Z" fill="#595959"/>
<path id="Vector_2" fill-rule="evenodd" clip-rule="evenodd" d="M10.4841 5.55588H15.0612C15.206 5.55588 15.3241 5.43172 15.3241 5.27939V5.26811C15.3241 5.11576 15.206 4.99163 15.0612 4.99163H14.9163C14.9163 4.15653 14.4817 3.43993 13.8431 3.04496V3.581C13.8431 3.73898 13.7251 3.86312 13.5748 3.86312C13.4246 3.86312 13.3065 3.73898 13.3065 3.581V2.81361C13.1348 2.76847 12.9578 2.73462 12.7699 2.73462C12.5821 2.73462 12.4051 2.76847 12.2334 2.81361V3.581C12.2334 3.73898 12.1153 3.86312 11.9651 3.86312C11.8148 3.86312 11.6968 3.73898 11.6968 3.581V3.04496C11.0582 3.43993 10.6236 4.15653 10.6236 4.99163H10.4841C10.3392 4.99163 10.2212 5.11576 10.2212 5.26811V5.28504C10.2212 5.43172 10.3392 5.55588 10.4841 5.55588Z" fill="#595959"/>
<path id="Vector_3" fill-rule="evenodd" clip-rule="evenodd" d="M11.2953 12.247H17.0635V11.1451C17.0635 9.67959 14.2035 8.94135 12.7708 8.94135C12.4183 8.94135 11.9794 8.98607 11.518 9.07527C12.1247 9.51666 12.5188 10.0555 12.5188 10.6912V12.2469L11.2953 12.247Z" fill="#595959"/>
</g>
</g>
<g id="Group 3409">
<path id="Vector_4" fill-rule="evenodd" clip-rule="evenodd" d="M5.9243 6.91798C7.10256 6.91798 8.08443 6.06528 8.36947 4.91956H3.47913C3.76417 6.06528 4.74604 6.91798 5.9243 6.91798Z" fill="#595959"/>
<path id="Vector_5" fill-rule="evenodd" clip-rule="evenodd" d="M3.22699 4.25345H8.63053C8.80154 4.25345 8.9409 4.10688 8.9409 3.92705V3.91373C8.9409 3.73387 8.80154 3.58732 8.63053 3.58732H8.45947C8.45947 2.60145 7.9464 1.75545 7.19255 1.28916V1.92199C7.19255 2.1085 7.05319 2.25505 6.87581 2.25505C6.69843 2.25505 6.55906 2.1085 6.55906 1.92199V1.01604C6.35636 0.962759 6.14734 0.922791 5.92558 0.922791C5.70387 0.922791 5.49485 0.962759 5.29215 1.01604V1.92199C5.29215 2.1085 5.15278 2.25505 4.9754 2.25505C4.79802 2.25505 4.65866 2.1085 4.65866 1.92199V1.28916C3.90481 1.75545 3.39174 2.60145 3.39174 3.58732H3.22699C3.05599 3.58732 2.91663 3.73387 2.91663 3.91373V3.93371C2.91663 4.10688 3.05599 4.25345 3.22699 4.25345Z" fill="#595959"/>
</g>
<path id="Union" fill-rule="evenodd" clip-rule="evenodd" d="M0.562988 10.9148C0.562988 9.14284 4.13799 8.25024 5.92884 8.25024C7.71969 8.25024 11.2947 9.14284 11.2947 10.9148V12.2471H0.562988V10.9148Z" fill="#595959"/>
</g>
<defs>
<clipPath id="clip0_1_265">
<rect width="17" height="11.9" fill="white" transform="translate(0.195801 0.427734)"/>
</clipPath>
</defs>
</svg>
