<svg width="16" height="16" viewBox="0 0 16 16" fill="none" xmlns="http://www.w3.org/2000/svg">
<g id="check_circle_black_24dp (2) 2" clip-path="url(#clip0_1_20)">
<path id="Vector" d="M8.03125 1.87109C4.58125 1.87109 1.78125 4.67109 1.78125 8.12109C1.78125 11.5711 4.58125 14.3711 8.03125 14.3711C11.4812 14.3711 14.2812 11.5711 14.2812 8.12109C14.2812 4.67109 11.4812 1.87109 8.03125 1.87109ZM8.03125 13.1211C5.275 13.1211 3.03125 10.8773 3.03125 8.12109C3.03125 5.36484 5.275 3.12109 8.03125 3.12109C10.7875 3.12109 13.0312 5.36484 13.0312 8.12109C13.0312 10.8773 10.7875 13.1211 8.03125 13.1211ZM10.9 5.35859L6.78125 9.47734L5.1625 7.86484L4.28125 8.74609L6.78125 11.2461L11.7812 6.24609L10.9 5.35859Z" fill="#32C438"/>
</g>
<defs>
<clipPath id="clip0_1_20">
<rect width="15" height="15" fill="white" transform="translate(0.53125 0.621094)"/>
</clipPath>
</defs>
</svg>
