<svg width="26" height="25" viewBox="0 0 26 25" fill="none" xmlns="http://www.w3.org/2000/svg">
<path id="Vector" fill-rule="evenodd" clip-rule="evenodd" d="M25.9219 7.88281C25.9219 6.49531 24.8094 5.38281 23.4219 5.38281H18.4219V2.88281C18.4219 1.49531 17.3094 0.382812 15.9219 0.382812H10.9219C9.5344 0.382812 8.42189 1.49531 8.42189 2.88281V5.38281H3.4219C2.03438 5.38281 0.93434 6.49531 0.93434 7.88281L0.921875 21.6328C0.921875 23.0203 2.03438 24.1328 3.4219 24.1328H23.4219C24.8094 24.1328 25.9219 23.0203 25.9219 21.6328V7.88281ZM15.9218 5.38281V2.88281H10.9218V5.38281H15.9218ZM3.42183 7.88281V21.6328H23.4218V7.88281H3.42183Z" fill="#575757"/>
</svg>
