<svg width="14" height="13" viewBox="0 0 14 13" fill="none" xmlns="http://www.w3.org/2000/svg">
<path id="Vector" fill-rule="evenodd" clip-rule="evenodd" d="M9.15999 8.28874H9.72188L13.2708 11.8451L12.2111 12.9048L8.65507 9.35564V8.79374L8.46303 8.59459C7.65229 9.29163 6.59965 9.71127 5.45463 9.71127C2.90137 9.71127 0.831787 7.64149 0.831787 5.08806C0.831787 2.53462 2.90137 0.464844 5.45463 0.464844C8.00789 0.464844 10.0775 2.53462 10.0775 5.08806C10.0775 6.23319 9.65784 7.28586 8.96087 8.0967L9.15999 8.28874ZM2.2542 5.08806C2.2542 6.8591 3.6837 8.28874 5.45463 8.28874C7.22557 8.28874 8.65507 6.8591 8.65507 5.08806C8.65507 3.31701 7.22557 1.88737 5.45463 1.88737C3.6837 1.88737 2.2542 3.31701 2.2542 5.08806Z" fill="white"/>
</svg>
