<svg width="32" height="25" viewBox="0 0 32 25" fill="none" xmlns="http://www.w3.org/2000/svg">
<g id="Group 5589">
<path id="Vector" fill-rule="evenodd" clip-rule="evenodd" d="M27.0313 13.0407H27.5932L31.1422 16.597L30.0824 17.6568L26.5264 14.1076V13.5457L26.3344 13.3465C25.5236 14.0436 24.471 14.4632 23.326 14.4632C20.7727 14.4632 18.7031 12.3934 18.7031 9.84001C18.7031 7.28657 20.7727 5.2168 23.326 5.2168C25.8792 5.2168 27.9488 7.28657 27.9488 9.84001C27.9488 10.9851 27.5292 12.0378 26.8322 12.8487L27.0313 13.0407ZM20.1255 9.84001C20.1255 11.6111 21.555 13.0407 23.326 13.0407C25.0969 13.0407 26.5264 11.6111 26.5264 9.84001C26.5264 8.06896 25.0969 6.63932 23.326 6.63932C21.555 6.63932 20.1255 8.06896 20.1255 9.84001Z" fill="#009AE0"/>
<path id="Vector_2" d="M11.6406 16.0391C7.96937 16.0391 0.640625 17.8816 0.640625 21.5391V24.2891H22.6406V21.5391C22.6406 17.8816 15.3119 16.0391 11.6406 16.0391Z" fill="#009AE0"/>
<path id="Vector_3" d="M5.78312 7.78906H17.5119C17.8831 7.78906 18.1856 7.48656 18.1856 7.11531V7.08781C18.1856 6.71656 17.8831 6.41406 17.5119 6.41406H17.1406C17.1406 4.37906 16.0269 2.63281 14.3906 1.67031V2.97656C14.3906 3.36156 14.0881 3.66406 13.7031 3.66406C13.3181 3.66406 13.0156 3.36156 13.0156 2.97656V1.10656C12.5756 0.996562 12.1219 0.914062 11.6406 0.914062C11.1594 0.914062 10.7056 0.996562 10.2656 1.10656V2.97656C10.2656 3.36156 9.96313 3.66406 9.57812 3.66406C9.19312 3.66406 8.89062 3.36156 8.89062 2.97656V1.67031C7.25437 2.63281 6.14062 4.37906 6.14062 6.41406H5.78312C5.41187 6.41406 5.10938 6.71656 5.10938 7.08781V7.12906C5.10938 7.48656 5.41187 7.78906 5.78312 7.78906Z" fill="#009AE0"/>
<path id="Vector_4" d="M11.6356 13.2891C14.1931 13.2891 16.3244 11.5291 16.9431 9.16406H6.32812C6.94687 11.5291 9.07813 13.2891 11.6356 13.2891Z" fill="#009AE0"/>
</g>
</svg>
